<?xml version="1.0" encoding="UTF-8"?>
<svg width="35px" height="25px" viewBox="0 0 35 25" version="1.1" xmlns="http://www.w3.org/2000/svg" xmlns:xlink="http://www.w3.org/1999/xlink">
    <!-- Generator: Sketch 47.1 (45422) - http://www.bohemiancoding.com/sketch -->
    <title>m</title>
    <desc>Created with Sketch.</desc>
    <defs></defs>
    <g id="Page-1" stroke="none" stroke-width="1" fill="none" fill-rule="evenodd">
        <g id="Landing" transform="translate(-37.000000, -37.000000)" fill="#F219BB">
            <g id="Header" transform="translate(37.000000, 37.000000)">
                <g id="Logo">
                    <path d="M19.278,3.078 C17.928,1.296 15.66,0 12.798,0 C10.098,0 7.884,1.026 6.696,2.538 L6.696,0.54 L0,0.54 L0,24.678 L6.696,24.678 L6.696,9.126 C7.128,7.074 8.748,5.994 10.476,5.994 C12.798,5.994 13.878,7.722 13.878,10.314 L13.878,24.678 L20.628,24.678 L20.628,9.126 C21.06,7.074 22.626,5.994 24.354,5.994 C26.676,5.994 27.81,7.722 27.81,10.314 L27.81,24.678 L34.506,24.678 L34.506,8.91 C34.506,3.456 31.536,0 26.568,0 C23.166,0 20.844,1.35 19.278,3.078 Z" id="m"></path>
                </g>
            </g>
        </g>
    </g>
</svg>